<?xml version="1.0" encoding="utf-8" ?>
<!-- Generator: Assembly 1.0 - http://assemblyapp.co -->
<svg version="1.1" xmlns="http://www.w3.org/2000/svg" xmlns:xlink="http://www.w3.org/1999/xlink" width="300" height="300" viewBox="0 0 300 300">
	<rect x="0" y="0" width="300" height="300" fill="#ffffff" />
	<g id="widget" transform="matrix(1,0,0,1,150,150)">
		<path d="M2.53134e-06,-101.981 L54.9385,-47.0425 C85.2992,-16.6817 85.2992,32.4738 54.9385,62.8345 L54.9385,62.8345 C24.5777,93.1953 -24.5778,93.1953 -54.9385,62.8345 L-54.9385,62.8345 C-85.2992,32.4738 -85.2992,-16.6817 -54.9385,-47.0425 L2.53134e-06,-101.981 Z" fill="#ffa539" fill-opacity="1" />
		<path d="M1.99475e-06,-62.2166 L43.2927,-18.924 C67.2176,5.00094 67.2176,43.7365 43.2927,67.6614 L43.2927,67.6614 C19.3678,91.5863 -19.3678,91.5863 -43.2927,67.6614 L-43.2927,67.6614 C-67.2176,43.7365 -67.2176,5.00095 -43.2927,-18.924 L1.99475e-06,-62.2166 Z" fill="#f3804b" fill-opacity="1" />
		<path d="M1.42522e-06,-20.0117 L30.9321,10.9204 C48.0261,28.0144 48.0261,55.6905 30.9321,72.7845 L30.9321,72.7845 C13.838,89.8786 -13.838,89.8786 -30.9321,72.7845 L-30.9321,72.7845 C-48.0261,55.6905 -48.0261,28.0144 -30.9321,10.9204 L1.42522e-06,-20.0117 Z" fill="#e55a5a" fill-opacity="1" />
		<path d="M78.8142,184.201 L91.7286,184.201 Q96.4197,184.201 100.642,185.25Q104.864,186.299 108.01,188.644Q111.155,190.99 113.004,194.743Q114.853,198.495 114.853,203.849Q114.853,208.595 113.059,212.21Q111.266,215.825 108.23,218.281Q105.195,220.737 101.221,222.006Q97.2475,223.276 92.8876,223.276L78.8142,223.276 Z M87.4238,215.328 L91.8941,215.328 Q94.8744,215.328 97.4407,214.721Q100.007,214.114 101.883,212.707Q103.76,211.299 104.836,209.009Q105.912,206.719 105.912,203.407Q105.912,200.537 104.836,198.413Q103.76,196.288 101.939,194.908Q100.117,193.528 97.6615,192.838Q95.2055,192.149 92.5012,192.149L87.4238,192.149 Z" fill="#705845" fill-opacity="1" />
		<path d="M132.643,184.201 L139.762,184.201 L156.76,223.276 L147.047,223.276 L143.68,214.997 L128.503,214.997 L125.247,223.276 L115.754,223.276 Z M135.954,195.57 L131.208,207.712 L140.755,207.712 Z" fill="#705845" fill-opacity="1" />
		<path d="M162.243,191.817 L151.094,191.817 L151.094,184.201 L182,184.201 L182,191.817 L170.852,191.817 L170.852,223.276 L162.243,223.276 Z" fill="#705845" fill-opacity="1" />
		<path d="M193.222,184.201 L200.342,184.201 L217.34,223.276 L207.627,223.276 L204.26,214.997 L189.083,214.997 L185.827,223.276 L176.334,223.276 Z M196.534,195.57 L191.787,207.712 L201.335,207.712 Z" fill="#705845" fill-opacity="1" />
		<path d="M79.1453,233.527 L105.36,233.527 L105.36,241.474 L87.7549,241.474 L87.7549,249.422 L104.036,249.422 L104.036,257.369 L87.7549,257.369 L87.7549,272.601 L79.1453,272.601 Z" fill="#705845" fill-opacity="1" />
		<path d="M143.57,257.535 Q143.57,261.012 142.521,263.937Q141.473,266.862 139.403,269.014Q137.334,271.166 134.243,272.381Q131.152,273.595 127.124,273.595Q123.04,273.595 119.949,272.381Q116.858,271.166 114.789,269.014Q112.719,266.862 111.67,263.937Q110.622,261.012 110.622,257.535L110.622,233.527 L119.231,233.527 L119.231,257.203 Q119.231,259.025 119.811,260.57Q120.39,262.115 121.439,263.247Q122.488,264.378 123.95,265.013Q125.413,265.647 127.124,265.647Q128.834,265.647 130.269,265.013Q131.704,264.378 132.753,263.247Q133.801,262.115 134.381,260.57Q134.96,259.025 134.96,257.203L134.96,233.527 L143.57,233.527 Z" fill="#705845" fill-opacity="1" />
		<path d="M150.929,233.527 L177.475,233.527 L177.475,241.474 L159.538,241.474 L159.538,248.759 L176.482,248.759 L176.482,256.707 L159.538,256.707 L159.538,264.654 L178.468,264.654 L178.468,272.601 L150.929,272.601 Z" fill="#705845" fill-opacity="1" />
		<path d="M184.778,233.527 L193.388,233.527 L193.388,264.654 L209.338,264.654 L209.338,272.601 L184.778,272.601 Z" fill="#705845" fill-opacity="1" />
	</g>
</svg>